<svg version="1.1" id="Calque_1" xmlns="http://www.w3.org/2000/svg" xmlns:xlink="http://www.w3.org/1999/xlink" x="0px" y="0px" viewBox="0 0 225.7 37.2" style="enable-background:new 0 0 225.7 37.2;" xml:space="preserve"> <path id="XMLID_1_" class="st0" d="M6.1,0v29.7H0L0,0L6.1,0z M9.7,14.8c0.1-1.4,0.4-2.5,1.1-3.4c0.6-0.9,1.4-1.6,2.4-2.2 c1-0.6,2.1-0.9,3.3-1.2s2.4-0.4,3.7-0.4c1.1,0,2.2,0.1,3.4,0.2c1.1,0.2,2.2,0.5,3.1,0.9c0.9,0.4,1.7,1.1,2.3,1.8 c0.6,0.8,0.9,1.8,0.9,3.1v11.2c0,1,0.1,1.9,0.2,2.8c0.1,0.9,0.3,1.6,0.6,2h-6.1c-0.1-0.3-0.2-0.7-0.3-1C24.1,28.3,24,28,24,27.6 c-1,1-2.1,1.6-3.4,2c-1.3,0.4-2.6,0.6-4,0.6c-1.1,0-2-0.1-2.9-0.4c-0.9-0.3-1.7-0.6-2.4-1.2c-0.7-0.5-1.2-1.2-1.6-2 c-0.4-0.8-0.6-1.8-0.6-2.9c0-1.2,0.2-2.2,0.7-3s1-1.4,1.7-1.9c0.7-0.5,1.5-0.8,2.4-1.1c0.9-0.2,1.8-0.4,2.7-0.6 c0.9-0.1,1.8-0.2,2.7-0.3c0.9-0.1,1.7-0.2,2.3-0.4c0.7-0.2,1.2-0.4,1.6-0.7c0.4-0.3,0.6-0.8,0.6-1.4c0-0.6-0.1-1.1-0.3-1.5 c-0.2-0.4-0.5-0.7-0.9-0.9c-0.4-0.2-0.8-0.3-1.2-0.4c-0.5-0.1-1-0.1-1.5-0.1c-1.2,0-2.1,0.2-2.8,0.7s-1.1,1.3-1.2,2.5H9.7z  M23.7,19.2c-0.3,0.2-0.6,0.4-1,0.5c-0.4,0.1-0.8,0.2-1.2,0.3c-0.4,0.1-0.9,0.2-1.4,0.2c-0.5,0.1-1,0.1-1.5,0.2 c-0.5,0.1-0.9,0.2-1.3,0.3c-0.4,0.1-0.8,0.3-1.2,0.6c-0.3,0.2-0.6,0.5-0.8,0.9c-0.2,0.4-0.3,0.8-0.3,1.4c0,0.5,0.1,1,0.3,1.3 c0.2,0.4,0.5,0.6,0.8,0.9c0.3,0.2,0.7,0.4,1.2,0.4c0.5,0.1,0.9,0.1,1.4,0.1c1.2,0,2.1-0.2,2.8-0.6c0.7-0.4,1.1-0.9,1.5-1.4 c0.3-0.5,0.5-1.1,0.6-1.6c0.1-0.6,0.1-1,0.1-1.3V19.2z M51.2,27.6v2.1H33.8v-2.1H51.2z M222,18c0-4.1,1-8,2.9-11.5h-2 c-1.7,3.5-2.7,7.4-2.7,11.5c0,4.6,1.2,9,3.4,12.8h2.1C223.3,27,222,22.6,222,18z M52.9,12.1V8.2h3.6V6.5c0-1.9,0.6-3.5,1.8-4.7 C59.6,0.6,61.5,0,63.9,0c0.5,0,1.1,0,1.6,0.1c0.5,0,1.1,0.1,1.6,0.1v4.4c-0.7-0.1-1.5-0.1-2.2-0.1c-0.8,0-1.4,0.2-1.8,0.6 c-0.4,0.4-0.5,1-0.5,1.9v1.3h4.2v3.9h-4.2v17.5h-6.1V12.1H52.9z M68.3,14.8c0.1-1.4,0.4-2.5,1.1-3.4c0.6-0.9,1.4-1.6,2.4-2.2 c1-0.6,2.1-0.9,3.3-1.2c1.2-0.2,2.4-0.4,3.7-0.4c1.1,0,2.2,0.1,3.4,0.2c1.1,0.2,2.2,0.5,3.1,0.9c0.9,0.4,1.7,1.1,2.3,1.9 c0.6,0.8,0.9,1.8,0.9,3.1v11.2c0,1,0.1,1.9,0.2,2.8c0.1,0.9,0.3,1.6,0.6,2h-6.2c-0.1-0.3-0.2-0.7-0.3-1s-0.1-0.7-0.2-1.1 c-1,1-2.1,1.6-3.4,2c-1.3,0.4-2.6,0.6-4,0.6c-1.1,0-2-0.1-2.9-0.4c-0.9-0.2-1.7-0.6-2.4-1.2c-0.7-0.5-1.2-1.2-1.6-2 c-0.4-0.8-0.6-1.8-0.6-2.9c0-1.2,0.2-2.2,0.7-3c0.4-0.8,1-1.4,1.7-1.9c0.7-0.5,1.5-0.8,2.4-1.1s1.8-0.4,2.7-0.6S77,17,77.8,17 c0.9-0.1,1.7-0.2,2.4-0.4c0.7-0.2,1.2-0.4,1.6-0.7c0.4-0.3,0.6-0.8,0.6-1.4c0-0.6-0.1-1.1-0.3-1.5c-0.2-0.4-0.5-0.7-0.9-0.9 c-0.4-0.2-0.8-0.3-1.2-0.4c-0.5-0.1-1-0.1-1.5-0.1c-1.2,0-2.1,0.2-2.8,0.7c-0.7,0.5-1.1,1.3-1.2,2.5H68.3z M82.4,19.2 c-0.3,0.2-0.6,0.4-1,0.5c-0.4,0.1-0.8,0.2-1.2,0.3c-0.4,0.1-0.9,0.2-1.4,0.2c-0.5,0.1-1,0.1-1.5,0.2c-0.5,0.1-0.9,0.2-1.3,0.3 c-0.4,0.1-0.8,0.3-1.2,0.6c-0.3,0.2-0.6,0.5-0.8,0.9c-0.2,0.4-0.3,0.8-0.3,1.4c0,0.5,0.1,1,0.3,1.3c0.2,0.4,0.5,0.6,0.8,0.9 c0.3,0.2,0.7,0.4,1.2,0.4c0.5,0.1,0.9,0.1,1.4,0.1c1.2,0,2.1-0.2,2.8-0.6c0.7-0.4,1.1-0.9,1.5-1.4c0.3-0.5,0.5-1.1,0.6-1.6 c0.1-0.6,0.1-1,0.1-1.3V19.2z M98.4,0v10.8h0.1c0.7-1.1,1.7-1.9,3-2.4c1.3-0.5,2.6-0.8,4-0.8c1.1,0,2.2,0.2,3.3,0.7 c1.1,0.4,2.1,1.1,2.9,2c0.9,0.9,1.6,2.1,2.1,3.5c0.5,1.4,0.8,3.1,0.8,5.1s-0.3,3.7-0.8,5.1c-0.5,1.4-1.2,2.6-2.1,3.5 c-0.9,0.9-1.8,1.6-2.9,2c-1.1,0.4-2.2,0.7-3.3,0.7c-1.6,0-3.1-0.3-4.4-0.7c-1.3-0.5-2.3-1.3-2.9-2.5h-0.1v2.7h-5.8V0L98.4,0z  M108.2,16.3c-0.2-0.8-0.5-1.6-0.9-2.2c-0.4-0.6-1-1.1-1.6-1.5c-0.6-0.4-1.4-0.6-2.3-0.6c-0.9,0-1.7,0.2-2.3,0.6 c-0.7,0.4-1.2,0.9-1.6,1.5c-0.4,0.6-0.7,1.4-0.9,2.2c-0.2,0.8-0.3,1.7-0.3,2.6c0,0.9,0.1,1.7,0.3,2.6c0.2,0.8,0.5,1.6,0.9,2.2 c0.4,0.6,1,1.1,1.6,1.5c0.7,0.4,1.4,0.6,2.3,0.6c0.9,0,1.7-0.2,2.3-0.6c0.6-0.4,1.2-0.9,1.6-1.5c0.4-0.6,0.7-1.4,0.9-2.2 c0.2-0.8,0.3-1.7,0.3-2.6C108.5,18,108.4,17.2,108.2,16.3z M123.3,8.2v4h0.1c0.3-0.7,0.7-1.3,1.2-1.8c0.5-0.6,1-1.1,1.7-1.5 c0.6-0.4,1.3-0.7,2-0.9c0.7-0.2,1.5-0.3,2.2-0.3c0.4,0,0.8,0.1,1.3,0.2v5.5c-0.3-0.1-0.6-0.1-1-0.1c-0.4,0-0.8-0.1-1.2-0.1 c-1.1,0-2.1,0.2-2.8,0.5c-0.8,0.4-1.4,0.9-1.9,1.5c-0.5,0.6-0.8,1.4-1,2.2c-0.2,0.8-0.3,1.7-0.3,2.7v9.7h-6.1V8.2H123.3z M133.5,4.9 V0l6.1,0v4.9H133.5z M139.6,8.2v21.5h-6.1V8.2H139.6z M159,37.2V27h-0.1c-0.7,1.2-1.7,2-3,2.5c-1.3,0.5-2.6,0.7-4,0.7 c-1,0-2.1-0.2-3.2-0.6c-1.1-0.4-2.1-1-3-1.9c-0.9-0.9-1.7-2-2.3-3.4c-0.6-1.4-0.9-3.2-0.9-5.3c0-1.5,0.2-2.9,0.6-4.3 c0.4-1.4,1-2.6,1.8-3.7s1.9-1.9,3.1-2.6s2.7-1,4.4-1c1.4,0,2.7,0.3,3.9,0.8c1.2,0.5,2.2,1.4,2.8,2.6h0.1V8.2h5.8v29H159z  M148.9,21.5c0.2,0.8,0.5,1.6,0.9,2.2s1,1.2,1.6,1.6c0.7,0.4,1.5,0.6,2.5,0.6s1.8-0.2,2.5-0.6c0.7-0.4,1.2-0.9,1.6-1.5 c0.4-0.6,0.7-1.3,0.9-2.2c0.2-0.8,0.3-1.7,0.3-2.6c0-0.8-0.1-1.7-0.3-2.5c-0.2-0.8-0.5-1.6-0.9-2.2c-0.4-0.7-0.9-1.2-1.6-1.6 c-0.7-0.4-1.5-0.6-2.4-0.6c-1,0-1.8,0.2-2.5,0.6c-0.7,0.4-1.2,0.9-1.7,1.6c-0.4,0.7-0.7,1.4-0.9,2.2c-0.2,0.8-0.3,1.7-0.3,2.6 C148.6,19.8,148.7,20.7,148.9,21.5z M183.7,29.7v-3h-0.1c-0.8,1.2-1.8,2.1-3,2.7c-1.2,0.6-2.5,0.8-3.8,0.8c-1.6,0-3-0.2-4-0.6 c-1-0.4-1.9-1-2.5-1.8c-0.6-0.8-1-1.7-1.3-2.8c-0.2-1.1-0.4-2.3-0.4-3.6V8.2h6.1v12.1c0,1.8,0.3,3.1,0.9,4c0.6,0.9,1.6,1.3,3,1.3 c1.7,0,2.8-0.5,3.6-1.4c0.7-1,1.1-2.5,1.1-4.7V8.2h6.1v21.5H183.7z M199.7,24.5c0.9,0.9,2.2,1.3,3.9,1.3c1.2,0,2.3-0.3,3.2-0.9 c0.9-0.6,1.4-1.2,1.6-1.9h5.3c-0.9,2.6-2.2,4.4-3.9,5.5c-1.8,1.1-3.9,1.7-6.4,1.7c-1.7,0-3.3-0.3-4.7-0.8c-1.4-0.5-2.6-1.3-3.5-2.3 c-1-1-1.7-2.2-2.2-3.6c-0.5-1.4-0.8-2.9-0.8-4.6c0-1.6,0.3-3.1,0.8-4.5c0.5-1.4,1.3-2.6,2.3-3.6c1-1,2.2-1.8,3.6-2.4 c1.4-0.6,2.9-0.9,4.6-0.9c1.9,0,3.5,0.4,4.9,1.1c1.4,0.7,2.5,1.7,3.4,2.8c0.9,1.2,1.5,2.6,1.9,4.1s0.5,3.1,0.4,4.8h-15.9 C198.3,22.3,198.8,23.7,199.7,24.5z M206.6,13.2c-0.7-0.8-1.8-1.2-3.3-1.2c-1,0-1.8,0.2-2.4,0.5c-0.6,0.3-1.2,0.7-1.5,1.2 c-0.4,0.5-0.7,1-0.8,1.5c-0.2,0.5-0.3,1-0.3,1.4h9.9C207.8,15.1,207.3,14,206.6,13.2z"/> </svg>